<mxfile host="65bd71144e">
    <diagram id="Iu0U1KSC4ujND80mvTKG" name="3-Stage Kara">
        <mxGraphModel dx="1706" dy="944" grid="1" gridSize="10" guides="1" tooltips="1" connect="1" arrows="1" fold="1" page="1" pageScale="1" pageWidth="827" pageHeight="1169" math="0" shadow="0">
            <root>
                <mxCell id="KRe18eViIGCxSkloIr4Q-0"/>
                <mxCell id="KRe18eViIGCxSkloIr4Q-1" parent="KRe18eViIGCxSkloIr4Q-0"/>
            </root>
        </mxGraphModel>
    </diagram>
    <diagram id="f2-EXeEwkbIQapGrz_3O" name="Kara-Pre">
        <mxGraphModel dx="2533" dy="944" grid="1" gridSize="10" guides="1" tooltips="1" connect="1" arrows="1" fold="1" page="1" pageScale="1" pageWidth="827" pageHeight="1169" math="0" shadow="0">
            <root>
                <mxCell id="iodwcrWe777_z6v0iQ3t-0"/>
                <mxCell id="iodwcrWe777_z6v0iQ3t-1" parent="iodwcrWe777_z6v0iQ3t-0"/>
                <mxCell id="rZxL_Q0prij5zdvf81o8-0" value="var" style="rounded=0;whiteSpace=wrap;html=1;fontFamily=Helvetica;fontSize=12;fontColor=rgb(0, 0, 0);align=center;strokeColor=#6c8ebf;fillColor=#dae8fc;" parent="iodwcrWe777_z6v0iQ3t-1" vertex="1">
                    <mxGeometry x="760" y="160" width="40" height="40" as="geometry"/>
                </mxCell>
                <mxCell id="rZxL_Q0prij5zdvf81o8-1" value="add" style="rounded=0;whiteSpace=wrap;html=1;fontFamily=Helvetica;fontSize=12;align=center;strokeColor=#82b366;fillColor=#d5e8d4;" parent="iodwcrWe777_z6v0iQ3t-1" vertex="1">
                    <mxGeometry x="760" y="200" width="40" height="40" as="geometry"/>
                </mxCell>
                <mxCell id="_vV385__Kn8vQ1GPUNuv-2" style="edgeStyle=none;html=1;exitX=0;exitY=0.5;exitDx=0;exitDy=0;entryX=0.5;entryY=0;entryDx=0;entryDy=0;" parent="iodwcrWe777_z6v0iQ3t-1" source="eaxTujfENIclXyBOoTa6-0" target="_vV385__Kn8vQ1GPUNuv-0" edge="1">
                    <mxGeometry relative="1" as="geometry"/>
                </mxCell>
                <mxCell id="_vV385__Kn8vQ1GPUNuv-3" style="edgeStyle=none;html=1;exitX=1;exitY=0.5;exitDx=0;exitDy=0;entryX=0.5;entryY=0;entryDx=0;entryDy=0;" parent="iodwcrWe777_z6v0iQ3t-1" source="eaxTujfENIclXyBOoTa6-0" target="_vV385__Kn8vQ1GPUNuv-0" edge="1">
                    <mxGeometry relative="1" as="geometry"/>
                </mxCell>
                <mxCell id="CLiYbFjGAUjI2EpVTt8b-6" style="edgeStyle=none;html=1;exitX=0;exitY=1;exitDx=0;exitDy=0;entryX=0.5;entryY=0;entryDx=0;entryDy=0;" parent="iodwcrWe777_z6v0iQ3t-1" source="eaxTujfENIclXyBOoTa6-0" target="CLiYbFjGAUjI2EpVTt8b-4" edge="1">
                    <mxGeometry relative="1" as="geometry"/>
                </mxCell>
                <mxCell id="CLiYbFjGAUjI2EpVTt8b-10" style="edgeStyle=none;html=1;exitX=1;exitY=1;exitDx=0;exitDy=0;entryX=0.5;entryY=0;entryDx=0;entryDy=0;" parent="iodwcrWe777_z6v0iQ3t-1" source="eaxTujfENIclXyBOoTa6-0" target="CLiYbFjGAUjI2EpVTt8b-8" edge="1">
                    <mxGeometry relative="1" as="geometry"/>
                </mxCell>
                <mxCell id="eaxTujfENIclXyBOoTa6-0" value="" style="ellipse;whiteSpace=wrap;html=1;aspect=fixed;fillColor=#dae8fc;strokeColor=#6c8ebf;" parent="iodwcrWe777_z6v0iQ3t-1" vertex="1">
                    <mxGeometry x="280" y="160" width="40" height="40" as="geometry"/>
                </mxCell>
                <mxCell id="CLiYbFjGAUjI2EpVTt8b-14" style="edgeStyle=none;html=1;exitX=0.5;exitY=1;exitDx=0;exitDy=0;entryX=0.5;entryY=0;entryDx=0;entryDy=0;" parent="iodwcrWe777_z6v0iQ3t-1" source="_vV385__Kn8vQ1GPUNuv-0" target="CLiYbFjGAUjI2EpVTt8b-12" edge="1">
                    <mxGeometry relative="1" as="geometry"/>
                </mxCell>
                <mxCell id="_vV385__Kn8vQ1GPUNuv-0" value="" style="ellipse;whiteSpace=wrap;html=1;aspect=fixed;fillColor=#d5e8d4;strokeColor=#82b366;" parent="iodwcrWe777_z6v0iQ3t-1" vertex="1">
                    <mxGeometry x="280" y="240" width="40" height="40" as="geometry"/>
                </mxCell>
                <mxCell id="CLiYbFjGAUjI2EpVTt8b-0" style="edgeStyle=none;html=1;exitX=0;exitY=0.5;exitDx=0;exitDy=0;entryX=0.5;entryY=0;entryDx=0;entryDy=0;" parent="iodwcrWe777_z6v0iQ3t-1" source="CLiYbFjGAUjI2EpVTt8b-2" target="CLiYbFjGAUjI2EpVTt8b-3" edge="1">
                    <mxGeometry relative="1" as="geometry"/>
                </mxCell>
                <mxCell id="CLiYbFjGAUjI2EpVTt8b-1" style="edgeStyle=none;html=1;exitX=1;exitY=0.5;exitDx=0;exitDy=0;entryX=0.5;entryY=0;entryDx=0;entryDy=0;" parent="iodwcrWe777_z6v0iQ3t-1" source="CLiYbFjGAUjI2EpVTt8b-2" target="CLiYbFjGAUjI2EpVTt8b-3" edge="1">
                    <mxGeometry relative="1" as="geometry"/>
                </mxCell>
                <mxCell id="CLiYbFjGAUjI2EpVTt8b-7" style="edgeStyle=none;html=1;exitX=0;exitY=1;exitDx=0;exitDy=0;entryX=0.5;entryY=0;entryDx=0;entryDy=0;" parent="iodwcrWe777_z6v0iQ3t-1" source="CLiYbFjGAUjI2EpVTt8b-2" target="CLiYbFjGAUjI2EpVTt8b-5" edge="1">
                    <mxGeometry relative="1" as="geometry"/>
                </mxCell>
                <mxCell id="CLiYbFjGAUjI2EpVTt8b-11" style="edgeStyle=none;html=1;exitX=1;exitY=1;exitDx=0;exitDy=0;entryX=0.5;entryY=0;entryDx=0;entryDy=0;" parent="iodwcrWe777_z6v0iQ3t-1" source="CLiYbFjGAUjI2EpVTt8b-2" target="CLiYbFjGAUjI2EpVTt8b-9" edge="1">
                    <mxGeometry relative="1" as="geometry"/>
                </mxCell>
                <mxCell id="CLiYbFjGAUjI2EpVTt8b-2" value="" style="ellipse;whiteSpace=wrap;html=1;aspect=fixed;fillColor=#dae8fc;strokeColor=#6c8ebf;" parent="iodwcrWe777_z6v0iQ3t-1" vertex="1">
                    <mxGeometry x="400" y="160" width="40" height="40" as="geometry"/>
                </mxCell>
                <mxCell id="CLiYbFjGAUjI2EpVTt8b-15" style="edgeStyle=none;html=1;exitX=0.5;exitY=1;exitDx=0;exitDy=0;entryX=0.5;entryY=0;entryDx=0;entryDy=0;" parent="iodwcrWe777_z6v0iQ3t-1" source="CLiYbFjGAUjI2EpVTt8b-3" target="CLiYbFjGAUjI2EpVTt8b-13" edge="1">
                    <mxGeometry relative="1" as="geometry"/>
                </mxCell>
                <mxCell id="CLiYbFjGAUjI2EpVTt8b-3" value="" style="ellipse;whiteSpace=wrap;html=1;aspect=fixed;fillColor=#d5e8d4;strokeColor=#82b366;" parent="iodwcrWe777_z6v0iQ3t-1" vertex="1">
                    <mxGeometry x="400" y="240" width="40" height="40" as="geometry"/>
                </mxCell>
                <mxCell id="CLiYbFjGAUjI2EpVTt8b-4" value="" style="ellipse;whiteSpace=wrap;html=1;aspect=fixed;fillColor=#dae8fc;strokeColor=#6c8ebf;" parent="iodwcrWe777_z6v0iQ3t-1" vertex="1">
                    <mxGeometry x="-40" y="320" width="40" height="40" as="geometry"/>
                </mxCell>
                <mxCell id="CLiYbFjGAUjI2EpVTt8b-5" value="" style="ellipse;whiteSpace=wrap;html=1;aspect=fixed;fillColor=#dae8fc;strokeColor=#6c8ebf;" parent="iodwcrWe777_z6v0iQ3t-1" vertex="1">
                    <mxGeometry x="80" y="320" width="40" height="40" as="geometry"/>
                </mxCell>
                <mxCell id="CLiYbFjGAUjI2EpVTt8b-8" value="" style="ellipse;whiteSpace=wrap;html=1;aspect=fixed;fillColor=#dae8fc;strokeColor=#6c8ebf;" parent="iodwcrWe777_z6v0iQ3t-1" vertex="1">
                    <mxGeometry x="600" y="320" width="40" height="40" as="geometry"/>
                </mxCell>
                <mxCell id="CLiYbFjGAUjI2EpVTt8b-9" value="" style="ellipse;whiteSpace=wrap;html=1;aspect=fixed;fillColor=#dae8fc;strokeColor=#6c8ebf;" parent="iodwcrWe777_z6v0iQ3t-1" vertex="1">
                    <mxGeometry x="720" y="320" width="40" height="40" as="geometry"/>
                </mxCell>
                <mxCell id="CLiYbFjGAUjI2EpVTt8b-12" value="" style="ellipse;whiteSpace=wrap;html=1;aspect=fixed;fillColor=#dae8fc;strokeColor=#6c8ebf;" parent="iodwcrWe777_z6v0iQ3t-1" vertex="1">
                    <mxGeometry x="280" y="320" width="40" height="40" as="geometry"/>
                </mxCell>
                <mxCell id="CLiYbFjGAUjI2EpVTt8b-13" value="" style="ellipse;whiteSpace=wrap;html=1;aspect=fixed;fillColor=#dae8fc;strokeColor=#6c8ebf;" parent="iodwcrWe777_z6v0iQ3t-1" vertex="1">
                    <mxGeometry x="400" y="320" width="40" height="40" as="geometry"/>
                </mxCell>
                <mxCell id="CLiYbFjGAUjI2EpVTt8b-16" style="edgeStyle=none;html=1;exitX=0;exitY=0.5;exitDx=0;exitDy=0;entryX=0.5;entryY=0;entryDx=0;entryDy=0;" parent="iodwcrWe777_z6v0iQ3t-1" source="CLiYbFjGAUjI2EpVTt8b-20" target="CLiYbFjGAUjI2EpVTt8b-22" edge="1">
                    <mxGeometry relative="1" as="geometry"/>
                </mxCell>
                <mxCell id="CLiYbFjGAUjI2EpVTt8b-17" style="edgeStyle=none;html=1;exitX=1;exitY=0.5;exitDx=0;exitDy=0;entryX=0.5;entryY=0;entryDx=0;entryDy=0;" parent="iodwcrWe777_z6v0iQ3t-1" source="CLiYbFjGAUjI2EpVTt8b-20" target="CLiYbFjGAUjI2EpVTt8b-22" edge="1">
                    <mxGeometry relative="1" as="geometry"/>
                </mxCell>
                <mxCell id="CLiYbFjGAUjI2EpVTt8b-18" style="edgeStyle=none;html=1;exitX=0;exitY=1;exitDx=0;exitDy=0;entryX=0.5;entryY=0;entryDx=0;entryDy=0;" parent="iodwcrWe777_z6v0iQ3t-1" source="CLiYbFjGAUjI2EpVTt8b-20" target="CLiYbFjGAUjI2EpVTt8b-30" edge="1">
                    <mxGeometry relative="1" as="geometry"/>
                </mxCell>
                <mxCell id="CLiYbFjGAUjI2EpVTt8b-19" style="edgeStyle=none;html=1;exitX=1;exitY=1;exitDx=0;exitDy=0;entryX=0.5;entryY=0;entryDx=0;entryDy=0;" parent="iodwcrWe777_z6v0iQ3t-1" source="CLiYbFjGAUjI2EpVTt8b-20" target="CLiYbFjGAUjI2EpVTt8b-32" edge="1">
                    <mxGeometry relative="1" as="geometry"/>
                </mxCell>
                <mxCell id="CLiYbFjGAUjI2EpVTt8b-20" value="" style="ellipse;whiteSpace=wrap;html=1;aspect=fixed;fillColor=#dae8fc;strokeColor=#6c8ebf;" parent="iodwcrWe777_z6v0iQ3t-1" vertex="1">
                    <mxGeometry x="-40" y="320" width="40" height="40" as="geometry"/>
                </mxCell>
                <mxCell id="CLiYbFjGAUjI2EpVTt8b-21" style="edgeStyle=none;html=1;exitX=0.5;exitY=1;exitDx=0;exitDy=0;entryX=0.5;entryY=0;entryDx=0;entryDy=0;" parent="iodwcrWe777_z6v0iQ3t-1" source="CLiYbFjGAUjI2EpVTt8b-22" target="CLiYbFjGAUjI2EpVTt8b-34" edge="1">
                    <mxGeometry relative="1" as="geometry"/>
                </mxCell>
                <mxCell id="CLiYbFjGAUjI2EpVTt8b-22" value="" style="ellipse;whiteSpace=wrap;html=1;aspect=fixed;fillColor=#d5e8d4;strokeColor=#82b366;" parent="iodwcrWe777_z6v0iQ3t-1" vertex="1">
                    <mxGeometry x="-40" y="400" width="40" height="40" as="geometry"/>
                </mxCell>
                <mxCell id="CLiYbFjGAUjI2EpVTt8b-23" style="edgeStyle=none;html=1;exitX=0;exitY=0.5;exitDx=0;exitDy=0;entryX=0.5;entryY=0;entryDx=0;entryDy=0;" parent="iodwcrWe777_z6v0iQ3t-1" source="CLiYbFjGAUjI2EpVTt8b-27" target="CLiYbFjGAUjI2EpVTt8b-29" edge="1">
                    <mxGeometry relative="1" as="geometry"/>
                </mxCell>
                <mxCell id="CLiYbFjGAUjI2EpVTt8b-24" style="edgeStyle=none;html=1;exitX=1;exitY=0.5;exitDx=0;exitDy=0;entryX=0.5;entryY=0;entryDx=0;entryDy=0;" parent="iodwcrWe777_z6v0iQ3t-1" source="CLiYbFjGAUjI2EpVTt8b-27" target="CLiYbFjGAUjI2EpVTt8b-29" edge="1">
                    <mxGeometry relative="1" as="geometry"/>
                </mxCell>
                <mxCell id="CLiYbFjGAUjI2EpVTt8b-25" style="edgeStyle=none;html=1;exitX=0;exitY=1;exitDx=0;exitDy=0;entryX=0.5;entryY=0;entryDx=0;entryDy=0;" parent="iodwcrWe777_z6v0iQ3t-1" source="CLiYbFjGAUjI2EpVTt8b-27" target="CLiYbFjGAUjI2EpVTt8b-31" edge="1">
                    <mxGeometry relative="1" as="geometry"/>
                </mxCell>
                <mxCell id="CLiYbFjGAUjI2EpVTt8b-26" style="edgeStyle=none;html=1;exitX=1;exitY=1;exitDx=0;exitDy=0;entryX=0.5;entryY=0;entryDx=0;entryDy=0;" parent="iodwcrWe777_z6v0iQ3t-1" source="CLiYbFjGAUjI2EpVTt8b-27" target="CLiYbFjGAUjI2EpVTt8b-33" edge="1">
                    <mxGeometry relative="1" as="geometry"/>
                </mxCell>
                <mxCell id="CLiYbFjGAUjI2EpVTt8b-27" value="" style="ellipse;whiteSpace=wrap;html=1;aspect=fixed;fillColor=#dae8fc;strokeColor=#6c8ebf;" parent="iodwcrWe777_z6v0iQ3t-1" vertex="1">
                    <mxGeometry x="80" y="320" width="40" height="40" as="geometry"/>
                </mxCell>
                <mxCell id="CLiYbFjGAUjI2EpVTt8b-28" style="edgeStyle=none;html=1;exitX=0.5;exitY=1;exitDx=0;exitDy=0;entryX=0.5;entryY=0;entryDx=0;entryDy=0;" parent="iodwcrWe777_z6v0iQ3t-1" source="CLiYbFjGAUjI2EpVTt8b-29" target="CLiYbFjGAUjI2EpVTt8b-35" edge="1">
                    <mxGeometry relative="1" as="geometry"/>
                </mxCell>
                <mxCell id="CLiYbFjGAUjI2EpVTt8b-29" value="" style="ellipse;whiteSpace=wrap;html=1;aspect=fixed;fillColor=#d5e8d4;strokeColor=#82b366;" parent="iodwcrWe777_z6v0iQ3t-1" vertex="1">
                    <mxGeometry x="80" y="400" width="40" height="40" as="geometry"/>
                </mxCell>
                <mxCell id="CLiYbFjGAUjI2EpVTt8b-30" value="" style="ellipse;whiteSpace=wrap;html=1;aspect=fixed;fillColor=#dae8fc;strokeColor=#6c8ebf;" parent="iodwcrWe777_z6v0iQ3t-1" vertex="1">
                    <mxGeometry x="-120" y="480" width="40" height="40" as="geometry"/>
                </mxCell>
                <mxCell id="CLiYbFjGAUjI2EpVTt8b-31" value="" style="ellipse;whiteSpace=wrap;html=1;aspect=fixed;fillColor=#dae8fc;strokeColor=#6c8ebf;" parent="iodwcrWe777_z6v0iQ3t-1" vertex="1">
                    <mxGeometry x="-80" y="480" width="40" height="40" as="geometry"/>
                </mxCell>
                <mxCell id="CLiYbFjGAUjI2EpVTt8b-32" value="" style="ellipse;whiteSpace=wrap;html=1;aspect=fixed;fillColor=#dae8fc;strokeColor=#6c8ebf;" parent="iodwcrWe777_z6v0iQ3t-1" vertex="1">
                    <mxGeometry x="120" y="480" width="40" height="40" as="geometry"/>
                </mxCell>
                <mxCell id="CLiYbFjGAUjI2EpVTt8b-33" value="" style="ellipse;whiteSpace=wrap;html=1;aspect=fixed;fillColor=#dae8fc;strokeColor=#6c8ebf;" parent="iodwcrWe777_z6v0iQ3t-1" vertex="1">
                    <mxGeometry x="160" y="480" width="40" height="40" as="geometry"/>
                </mxCell>
                <mxCell id="CLiYbFjGAUjI2EpVTt8b-34" value="" style="ellipse;whiteSpace=wrap;html=1;aspect=fixed;fillColor=#dae8fc;strokeColor=#6c8ebf;" parent="iodwcrWe777_z6v0iQ3t-1" vertex="1">
                    <mxGeometry y="480" width="40" height="40" as="geometry"/>
                </mxCell>
                <mxCell id="CLiYbFjGAUjI2EpVTt8b-35" value="" style="ellipse;whiteSpace=wrap;html=1;aspect=fixed;fillColor=#dae8fc;strokeColor=#6c8ebf;" parent="iodwcrWe777_z6v0iQ3t-1" vertex="1">
                    <mxGeometry x="40" y="480" width="40" height="40" as="geometry"/>
                </mxCell>
                <mxCell id="CLiYbFjGAUjI2EpVTt8b-36" style="edgeStyle=none;html=1;exitX=0;exitY=0.5;exitDx=0;exitDy=0;entryX=0.5;entryY=0;entryDx=0;entryDy=0;" parent="iodwcrWe777_z6v0iQ3t-1" source="CLiYbFjGAUjI2EpVTt8b-40" target="CLiYbFjGAUjI2EpVTt8b-42" edge="1">
                    <mxGeometry relative="1" as="geometry"/>
                </mxCell>
                <mxCell id="CLiYbFjGAUjI2EpVTt8b-37" style="edgeStyle=none;html=1;exitX=1;exitY=0.5;exitDx=0;exitDy=0;entryX=0.5;entryY=0;entryDx=0;entryDy=0;" parent="iodwcrWe777_z6v0iQ3t-1" source="CLiYbFjGAUjI2EpVTt8b-40" target="CLiYbFjGAUjI2EpVTt8b-42" edge="1">
                    <mxGeometry relative="1" as="geometry"/>
                </mxCell>
                <mxCell id="CLiYbFjGAUjI2EpVTt8b-38" style="edgeStyle=none;html=1;exitX=0;exitY=1;exitDx=0;exitDy=0;entryX=0.5;entryY=0;entryDx=0;entryDy=0;" parent="iodwcrWe777_z6v0iQ3t-1" source="CLiYbFjGAUjI2EpVTt8b-40" target="CLiYbFjGAUjI2EpVTt8b-50" edge="1">
                    <mxGeometry relative="1" as="geometry"/>
                </mxCell>
                <mxCell id="CLiYbFjGAUjI2EpVTt8b-39" style="edgeStyle=none;html=1;exitX=1;exitY=1;exitDx=0;exitDy=0;entryX=0.5;entryY=0;entryDx=0;entryDy=0;" parent="iodwcrWe777_z6v0iQ3t-1" source="CLiYbFjGAUjI2EpVTt8b-40" target="CLiYbFjGAUjI2EpVTt8b-52" edge="1">
                    <mxGeometry relative="1" as="geometry"/>
                </mxCell>
                <mxCell id="CLiYbFjGAUjI2EpVTt8b-40" value="" style="ellipse;whiteSpace=wrap;html=1;aspect=fixed;fillColor=#dae8fc;strokeColor=#6c8ebf;" parent="iodwcrWe777_z6v0iQ3t-1" vertex="1">
                    <mxGeometry x="600" y="320" width="40" height="40" as="geometry"/>
                </mxCell>
                <mxCell id="CLiYbFjGAUjI2EpVTt8b-41" style="edgeStyle=none;html=1;exitX=0.5;exitY=1;exitDx=0;exitDy=0;entryX=0.5;entryY=0;entryDx=0;entryDy=0;" parent="iodwcrWe777_z6v0iQ3t-1" source="CLiYbFjGAUjI2EpVTt8b-42" target="CLiYbFjGAUjI2EpVTt8b-54" edge="1">
                    <mxGeometry relative="1" as="geometry"/>
                </mxCell>
                <mxCell id="CLiYbFjGAUjI2EpVTt8b-42" value="" style="ellipse;whiteSpace=wrap;html=1;aspect=fixed;fillColor=#d5e8d4;strokeColor=#82b366;" parent="iodwcrWe777_z6v0iQ3t-1" vertex="1">
                    <mxGeometry x="600" y="400" width="40" height="40" as="geometry"/>
                </mxCell>
                <mxCell id="CLiYbFjGAUjI2EpVTt8b-43" style="edgeStyle=none;html=1;exitX=0;exitY=0.5;exitDx=0;exitDy=0;entryX=0.5;entryY=0;entryDx=0;entryDy=0;" parent="iodwcrWe777_z6v0iQ3t-1" source="CLiYbFjGAUjI2EpVTt8b-47" target="CLiYbFjGAUjI2EpVTt8b-49" edge="1">
                    <mxGeometry relative="1" as="geometry"/>
                </mxCell>
                <mxCell id="CLiYbFjGAUjI2EpVTt8b-44" style="edgeStyle=none;html=1;exitX=1;exitY=0.5;exitDx=0;exitDy=0;entryX=0.5;entryY=0;entryDx=0;entryDy=0;" parent="iodwcrWe777_z6v0iQ3t-1" source="CLiYbFjGAUjI2EpVTt8b-47" target="CLiYbFjGAUjI2EpVTt8b-49" edge="1">
                    <mxGeometry relative="1" as="geometry"/>
                </mxCell>
                <mxCell id="CLiYbFjGAUjI2EpVTt8b-45" style="edgeStyle=none;html=1;exitX=0;exitY=1;exitDx=0;exitDy=0;entryX=0.5;entryY=0;entryDx=0;entryDy=0;" parent="iodwcrWe777_z6v0iQ3t-1" source="CLiYbFjGAUjI2EpVTt8b-47" target="CLiYbFjGAUjI2EpVTt8b-51" edge="1">
                    <mxGeometry relative="1" as="geometry"/>
                </mxCell>
                <mxCell id="CLiYbFjGAUjI2EpVTt8b-46" style="edgeStyle=none;html=1;exitX=1;exitY=1;exitDx=0;exitDy=0;entryX=0.5;entryY=0;entryDx=0;entryDy=0;" parent="iodwcrWe777_z6v0iQ3t-1" source="CLiYbFjGAUjI2EpVTt8b-47" target="CLiYbFjGAUjI2EpVTt8b-53" edge="1">
                    <mxGeometry relative="1" as="geometry"/>
                </mxCell>
                <mxCell id="CLiYbFjGAUjI2EpVTt8b-47" value="" style="ellipse;whiteSpace=wrap;html=1;aspect=fixed;fillColor=#dae8fc;strokeColor=#6c8ebf;" parent="iodwcrWe777_z6v0iQ3t-1" vertex="1">
                    <mxGeometry x="720" y="320" width="40" height="40" as="geometry"/>
                </mxCell>
                <mxCell id="CLiYbFjGAUjI2EpVTt8b-48" style="edgeStyle=none;html=1;exitX=0.5;exitY=1;exitDx=0;exitDy=0;entryX=0.5;entryY=0;entryDx=0;entryDy=0;" parent="iodwcrWe777_z6v0iQ3t-1" source="CLiYbFjGAUjI2EpVTt8b-49" target="CLiYbFjGAUjI2EpVTt8b-55" edge="1">
                    <mxGeometry relative="1" as="geometry"/>
                </mxCell>
                <mxCell id="CLiYbFjGAUjI2EpVTt8b-49" value="" style="ellipse;whiteSpace=wrap;html=1;aspect=fixed;fillColor=#d5e8d4;strokeColor=#82b366;" parent="iodwcrWe777_z6v0iQ3t-1" vertex="1">
                    <mxGeometry x="720" y="400" width="40" height="40" as="geometry"/>
                </mxCell>
                <mxCell id="CLiYbFjGAUjI2EpVTt8b-50" value="" style="ellipse;whiteSpace=wrap;html=1;aspect=fixed;fillColor=#dae8fc;strokeColor=#6c8ebf;" parent="iodwcrWe777_z6v0iQ3t-1" vertex="1">
                    <mxGeometry x="520" y="480" width="40" height="40" as="geometry"/>
                </mxCell>
                <mxCell id="CLiYbFjGAUjI2EpVTt8b-51" value="" style="ellipse;whiteSpace=wrap;html=1;aspect=fixed;fillColor=#dae8fc;strokeColor=#6c8ebf;" parent="iodwcrWe777_z6v0iQ3t-1" vertex="1">
                    <mxGeometry x="560" y="480" width="40" height="40" as="geometry"/>
                </mxCell>
                <mxCell id="CLiYbFjGAUjI2EpVTt8b-52" value="" style="ellipse;whiteSpace=wrap;html=1;aspect=fixed;fillColor=#dae8fc;strokeColor=#6c8ebf;" parent="iodwcrWe777_z6v0iQ3t-1" vertex="1">
                    <mxGeometry x="760" y="480" width="40" height="40" as="geometry"/>
                </mxCell>
                <mxCell id="CLiYbFjGAUjI2EpVTt8b-53" value="" style="ellipse;whiteSpace=wrap;html=1;aspect=fixed;fillColor=#dae8fc;strokeColor=#6c8ebf;" parent="iodwcrWe777_z6v0iQ3t-1" vertex="1">
                    <mxGeometry x="800" y="480" width="40" height="40" as="geometry"/>
                </mxCell>
                <mxCell id="CLiYbFjGAUjI2EpVTt8b-54" value="" style="ellipse;whiteSpace=wrap;html=1;aspect=fixed;fillColor=#dae8fc;strokeColor=#6c8ebf;" parent="iodwcrWe777_z6v0iQ3t-1" vertex="1">
                    <mxGeometry x="640" y="480" width="40" height="40" as="geometry"/>
                </mxCell>
                <mxCell id="CLiYbFjGAUjI2EpVTt8b-55" value="" style="ellipse;whiteSpace=wrap;html=1;aspect=fixed;fillColor=#dae8fc;strokeColor=#6c8ebf;" parent="iodwcrWe777_z6v0iQ3t-1" vertex="1">
                    <mxGeometry x="680" y="480" width="40" height="40" as="geometry"/>
                </mxCell>
                <mxCell id="CLiYbFjGAUjI2EpVTt8b-99" value="" style="ellipse;whiteSpace=wrap;html=1;aspect=fixed;fillColor=#dae8fc;strokeColor=#6c8ebf;" parent="iodwcrWe777_z6v0iQ3t-1" vertex="1">
                    <mxGeometry x="280" y="320" width="40" height="40" as="geometry"/>
                </mxCell>
                <mxCell id="CLiYbFjGAUjI2EpVTt8b-100" value="" style="ellipse;whiteSpace=wrap;html=1;aspect=fixed;fillColor=#dae8fc;strokeColor=#6c8ebf;" parent="iodwcrWe777_z6v0iQ3t-1" vertex="1">
                    <mxGeometry x="400" y="320" width="40" height="40" as="geometry"/>
                </mxCell>
                <mxCell id="CLiYbFjGAUjI2EpVTt8b-101" style="edgeStyle=none;html=1;exitX=0;exitY=0.5;exitDx=0;exitDy=0;entryX=0.5;entryY=0;entryDx=0;entryDy=0;" parent="iodwcrWe777_z6v0iQ3t-1" source="CLiYbFjGAUjI2EpVTt8b-105" target="CLiYbFjGAUjI2EpVTt8b-107" edge="1">
                    <mxGeometry relative="1" as="geometry"/>
                </mxCell>
                <mxCell id="CLiYbFjGAUjI2EpVTt8b-102" style="edgeStyle=none;html=1;exitX=1;exitY=0.5;exitDx=0;exitDy=0;entryX=0.5;entryY=0;entryDx=0;entryDy=0;" parent="iodwcrWe777_z6v0iQ3t-1" source="CLiYbFjGAUjI2EpVTt8b-105" target="CLiYbFjGAUjI2EpVTt8b-107" edge="1">
                    <mxGeometry relative="1" as="geometry"/>
                </mxCell>
                <mxCell id="CLiYbFjGAUjI2EpVTt8b-103" style="edgeStyle=none;html=1;exitX=0;exitY=1;exitDx=0;exitDy=0;entryX=0.5;entryY=0;entryDx=0;entryDy=0;" parent="iodwcrWe777_z6v0iQ3t-1" source="CLiYbFjGAUjI2EpVTt8b-105" target="CLiYbFjGAUjI2EpVTt8b-115" edge="1">
                    <mxGeometry relative="1" as="geometry"/>
                </mxCell>
                <mxCell id="CLiYbFjGAUjI2EpVTt8b-104" style="edgeStyle=none;html=1;exitX=1;exitY=1;exitDx=0;exitDy=0;entryX=0.5;entryY=0;entryDx=0;entryDy=0;" parent="iodwcrWe777_z6v0iQ3t-1" source="CLiYbFjGAUjI2EpVTt8b-105" target="CLiYbFjGAUjI2EpVTt8b-117" edge="1">
                    <mxGeometry relative="1" as="geometry"/>
                </mxCell>
                <mxCell id="CLiYbFjGAUjI2EpVTt8b-105" value="" style="ellipse;whiteSpace=wrap;html=1;aspect=fixed;fillColor=#dae8fc;strokeColor=#6c8ebf;" parent="iodwcrWe777_z6v0iQ3t-1" vertex="1">
                    <mxGeometry x="280" y="320" width="40" height="40" as="geometry"/>
                </mxCell>
                <mxCell id="CLiYbFjGAUjI2EpVTt8b-106" style="edgeStyle=none;html=1;exitX=0.5;exitY=1;exitDx=0;exitDy=0;entryX=0.5;entryY=0;entryDx=0;entryDy=0;" parent="iodwcrWe777_z6v0iQ3t-1" source="CLiYbFjGAUjI2EpVTt8b-107" target="CLiYbFjGAUjI2EpVTt8b-119" edge="1">
                    <mxGeometry relative="1" as="geometry"/>
                </mxCell>
                <mxCell id="CLiYbFjGAUjI2EpVTt8b-107" value="" style="ellipse;whiteSpace=wrap;html=1;aspect=fixed;fillColor=#d5e8d4;strokeColor=#82b366;" parent="iodwcrWe777_z6v0iQ3t-1" vertex="1">
                    <mxGeometry x="280" y="400" width="40" height="40" as="geometry"/>
                </mxCell>
                <mxCell id="CLiYbFjGAUjI2EpVTt8b-108" style="edgeStyle=none;html=1;exitX=0;exitY=0.5;exitDx=0;exitDy=0;entryX=0.5;entryY=0;entryDx=0;entryDy=0;" parent="iodwcrWe777_z6v0iQ3t-1" source="CLiYbFjGAUjI2EpVTt8b-112" target="CLiYbFjGAUjI2EpVTt8b-114" edge="1">
                    <mxGeometry relative="1" as="geometry"/>
                </mxCell>
                <mxCell id="CLiYbFjGAUjI2EpVTt8b-109" style="edgeStyle=none;html=1;exitX=1;exitY=0.5;exitDx=0;exitDy=0;entryX=0.5;entryY=0;entryDx=0;entryDy=0;" parent="iodwcrWe777_z6v0iQ3t-1" source="CLiYbFjGAUjI2EpVTt8b-112" target="CLiYbFjGAUjI2EpVTt8b-114" edge="1">
                    <mxGeometry relative="1" as="geometry"/>
                </mxCell>
                <mxCell id="CLiYbFjGAUjI2EpVTt8b-110" style="edgeStyle=none;html=1;exitX=0;exitY=1;exitDx=0;exitDy=0;entryX=0.5;entryY=0;entryDx=0;entryDy=0;" parent="iodwcrWe777_z6v0iQ3t-1" source="CLiYbFjGAUjI2EpVTt8b-112" target="CLiYbFjGAUjI2EpVTt8b-116" edge="1">
                    <mxGeometry relative="1" as="geometry"/>
                </mxCell>
                <mxCell id="CLiYbFjGAUjI2EpVTt8b-111" style="edgeStyle=none;html=1;exitX=1;exitY=1;exitDx=0;exitDy=0;entryX=0.5;entryY=0;entryDx=0;entryDy=0;" parent="iodwcrWe777_z6v0iQ3t-1" source="CLiYbFjGAUjI2EpVTt8b-112" target="CLiYbFjGAUjI2EpVTt8b-118" edge="1">
                    <mxGeometry relative="1" as="geometry"/>
                </mxCell>
                <mxCell id="CLiYbFjGAUjI2EpVTt8b-112" value="" style="ellipse;whiteSpace=wrap;html=1;aspect=fixed;fillColor=#dae8fc;strokeColor=#6c8ebf;" parent="iodwcrWe777_z6v0iQ3t-1" vertex="1">
                    <mxGeometry x="400" y="320" width="40" height="40" as="geometry"/>
                </mxCell>
                <mxCell id="CLiYbFjGAUjI2EpVTt8b-113" style="edgeStyle=none;html=1;exitX=0.5;exitY=1;exitDx=0;exitDy=0;entryX=0.5;entryY=0;entryDx=0;entryDy=0;" parent="iodwcrWe777_z6v0iQ3t-1" source="CLiYbFjGAUjI2EpVTt8b-114" target="CLiYbFjGAUjI2EpVTt8b-120" edge="1">
                    <mxGeometry relative="1" as="geometry"/>
                </mxCell>
                <mxCell id="CLiYbFjGAUjI2EpVTt8b-114" value="" style="ellipse;whiteSpace=wrap;html=1;aspect=fixed;fillColor=#d5e8d4;strokeColor=#82b366;" parent="iodwcrWe777_z6v0iQ3t-1" vertex="1">
                    <mxGeometry x="400" y="400" width="40" height="40" as="geometry"/>
                </mxCell>
                <mxCell id="CLiYbFjGAUjI2EpVTt8b-115" value="" style="ellipse;whiteSpace=wrap;html=1;aspect=fixed;fillColor=#dae8fc;strokeColor=#6c8ebf;" parent="iodwcrWe777_z6v0iQ3t-1" vertex="1">
                    <mxGeometry x="200" y="480" width="40" height="40" as="geometry"/>
                </mxCell>
                <mxCell id="CLiYbFjGAUjI2EpVTt8b-116" value="" style="ellipse;whiteSpace=wrap;html=1;aspect=fixed;fillColor=#dae8fc;strokeColor=#6c8ebf;" parent="iodwcrWe777_z6v0iQ3t-1" vertex="1">
                    <mxGeometry x="240" y="480" width="40" height="40" as="geometry"/>
                </mxCell>
                <mxCell id="CLiYbFjGAUjI2EpVTt8b-117" value="" style="ellipse;whiteSpace=wrap;html=1;aspect=fixed;fillColor=#dae8fc;strokeColor=#6c8ebf;" parent="iodwcrWe777_z6v0iQ3t-1" vertex="1">
                    <mxGeometry x="440" y="480" width="40" height="40" as="geometry"/>
                </mxCell>
                <mxCell id="CLiYbFjGAUjI2EpVTt8b-118" value="" style="ellipse;whiteSpace=wrap;html=1;aspect=fixed;fillColor=#dae8fc;strokeColor=#6c8ebf;" parent="iodwcrWe777_z6v0iQ3t-1" vertex="1">
                    <mxGeometry x="480" y="480" width="40" height="40" as="geometry"/>
                </mxCell>
                <mxCell id="CLiYbFjGAUjI2EpVTt8b-119" value="" style="ellipse;whiteSpace=wrap;html=1;aspect=fixed;fillColor=#dae8fc;strokeColor=#6c8ebf;" parent="iodwcrWe777_z6v0iQ3t-1" vertex="1">
                    <mxGeometry x="320" y="480" width="40" height="40" as="geometry"/>
                </mxCell>
                <mxCell id="CLiYbFjGAUjI2EpVTt8b-120" value="" style="ellipse;whiteSpace=wrap;html=1;aspect=fixed;fillColor=#dae8fc;strokeColor=#6c8ebf;" parent="iodwcrWe777_z6v0iQ3t-1" vertex="1">
                    <mxGeometry x="360" y="480" width="40" height="40" as="geometry"/>
                </mxCell>
                <mxCell id="CLiYbFjGAUjI2EpVTt8b-121" value="a problem is that different addtion widths lead to different latencies&lt;br&gt;solution 1: stage by stage, aligned to the longest latency&lt;br&gt;solution 2: auto pipeline for minimum latency by dfg" style="text;html=1;align=center;verticalAlign=middle;resizable=0;points=[];autosize=1;strokeColor=none;fillColor=none;" parent="iodwcrWe777_z6v0iQ3t-1" vertex="1">
                    <mxGeometry x="30" y="50" width="370" height="50" as="geometry"/>
                </mxCell>
                <mxCell id="BVFGT7KqGkAnDj-SOaFP-0" value="DFG is still the best method, although &quot;shift&quot; method is no neccessary" style="text;html=1;align=center;verticalAlign=middle;resizable=0;points=[];autosize=1;strokeColor=none;fillColor=none;" parent="iodwcrWe777_z6v0iQ3t-1" vertex="1">
                    <mxGeometry x="410" y="65" width="390" height="20" as="geometry"/>
                </mxCell>
            </root>
        </mxGraphModel>
    </diagram>
    <diagram id="aseBqphGKix1oUS9Ny6R" name="Kara-Post">
        <mxGraphModel dx="1706" dy="944" grid="1" gridSize="10" guides="1" tooltips="1" connect="1" arrows="1" fold="1" page="1" pageScale="1" pageWidth="827" pageHeight="1169" math="0" shadow="0">
            <root>
                <mxCell id="tbDZKZAM7Y5TUhDkYI3e-0"/>
                <mxCell id="tbDZKZAM7Y5TUhDkYI3e-1" parent="tbDZKZAM7Y5TUhDkYI3e-0"/>
            </root>
        </mxGraphModel>
    </diagram>
    <diagram id="IcrKlgCQrhWKgsdSyPrX" name="第 4 页">
        <mxGraphModel dx="1706" dy="1131" grid="1" gridSize="10" guides="1" tooltips="1" connect="1" arrows="1" fold="1" page="1" pageScale="1" pageWidth="827" pageHeight="1169" math="1" shadow="0">
            <root>
                <mxCell id="2jUatfFAhC-dmfJNtU32-0"/>
                <mxCell id="2jUatfFAhC-dmfJNtU32-1" parent="2jUatfFAhC-dmfJNtU32-0"/>
                <mxCell id="2jUatfFAhC-dmfJNtU32-2" value="" style="rounded=0;whiteSpace=wrap;html=1;fillColor=#dae8fc;strokeColor=#6c8ebf;" parent="2jUatfFAhC-dmfJNtU32-1" vertex="1">
                    <mxGeometry x="120" y="200" width="20" height="30" as="geometry"/>
                </mxCell>
                <mxCell id="2jUatfFAhC-dmfJNtU32-3" value="" style="rounded=0;whiteSpace=wrap;html=1;fillColor=#dae8fc;strokeColor=#6c8ebf;" parent="2jUatfFAhC-dmfJNtU32-1" vertex="1">
                    <mxGeometry x="180" y="200" width="20" height="30" as="geometry"/>
                </mxCell>
                <mxCell id="2jUatfFAhC-dmfJNtU32-4" value="" style="rounded=0;whiteSpace=wrap;html=1;fillColor=#dae8fc;strokeColor=#6c8ebf;" parent="2jUatfFAhC-dmfJNtU32-1" vertex="1">
                    <mxGeometry x="240" y="200" width="20" height="30" as="geometry"/>
                </mxCell>
                <mxCell id="2jUatfFAhC-dmfJNtU32-5" value="" style="rounded=0;whiteSpace=wrap;html=1;fillColor=#dae8fc;strokeColor=#6c8ebf;" parent="2jUatfFAhC-dmfJNtU32-1" vertex="1">
                    <mxGeometry x="300" y="200" width="20" height="30" as="geometry"/>
                </mxCell>
                <mxCell id="2jUatfFAhC-dmfJNtU32-6" value="" style="rounded=0;whiteSpace=wrap;html=1;fillColor=#dae8fc;strokeColor=#6c8ebf;" parent="2jUatfFAhC-dmfJNtU32-1" vertex="1">
                    <mxGeometry x="120" y="260" width="20" height="30" as="geometry"/>
                </mxCell>
                <mxCell id="2jUatfFAhC-dmfJNtU32-7" value="" style="rounded=0;whiteSpace=wrap;html=1;fillColor=#dae8fc;strokeColor=#6c8ebf;" parent="2jUatfFAhC-dmfJNtU32-1" vertex="1">
                    <mxGeometry x="180" y="260" width="20" height="30" as="geometry"/>
                </mxCell>
                <mxCell id="2jUatfFAhC-dmfJNtU32-8" value="" style="rounded=0;whiteSpace=wrap;html=1;fillColor=#dae8fc;strokeColor=#6c8ebf;" parent="2jUatfFAhC-dmfJNtU32-1" vertex="1">
                    <mxGeometry x="240" y="260" width="20" height="30" as="geometry"/>
                </mxCell>
                <mxCell id="2jUatfFAhC-dmfJNtU32-9" value="" style="rounded=0;whiteSpace=wrap;html=1;fillColor=#dae8fc;strokeColor=#6c8ebf;" parent="2jUatfFAhC-dmfJNtU32-1" vertex="1">
                    <mxGeometry x="300" y="260" width="20" height="30" as="geometry"/>
                </mxCell>
                <mxCell id="2jUatfFAhC-dmfJNtU32-10" value="" style="rounded=0;whiteSpace=wrap;html=1;fillColor=#dae8fc;strokeColor=#6c8ebf;" parent="2jUatfFAhC-dmfJNtU32-1" vertex="1">
                    <mxGeometry x="120" y="320" width="20" height="30" as="geometry"/>
                </mxCell>
                <mxCell id="2jUatfFAhC-dmfJNtU32-11" value="" style="rounded=0;whiteSpace=wrap;html=1;fillColor=#dae8fc;strokeColor=#6c8ebf;" parent="2jUatfFAhC-dmfJNtU32-1" vertex="1">
                    <mxGeometry x="180" y="320" width="20" height="30" as="geometry"/>
                </mxCell>
                <mxCell id="2jUatfFAhC-dmfJNtU32-12" value="" style="rounded=0;whiteSpace=wrap;html=1;fillColor=#dae8fc;strokeColor=#6c8ebf;" parent="2jUatfFAhC-dmfJNtU32-1" vertex="1">
                    <mxGeometry x="240" y="320" width="20" height="30" as="geometry"/>
                </mxCell>
                <mxCell id="2jUatfFAhC-dmfJNtU32-13" value="" style="rounded=0;whiteSpace=wrap;html=1;fillColor=#dae8fc;strokeColor=#6c8ebf;" parent="2jUatfFAhC-dmfJNtU32-1" vertex="1">
                    <mxGeometry x="300" y="320" width="20" height="30" as="geometry"/>
                </mxCell>
                <mxCell id="2jUatfFAhC-dmfJNtU32-14" value="" style="rounded=0;whiteSpace=wrap;html=1;fillColor=#dae8fc;strokeColor=#6c8ebf;" parent="2jUatfFAhC-dmfJNtU32-1" vertex="1">
                    <mxGeometry x="120" y="380" width="20" height="30" as="geometry"/>
                </mxCell>
                <mxCell id="2jUatfFAhC-dmfJNtU32-15" value="" style="rounded=0;whiteSpace=wrap;html=1;fillColor=#dae8fc;strokeColor=#6c8ebf;" parent="2jUatfFAhC-dmfJNtU32-1" vertex="1">
                    <mxGeometry x="180" y="380" width="20" height="30" as="geometry"/>
                </mxCell>
                <mxCell id="2jUatfFAhC-dmfJNtU32-16" value="" style="rounded=0;whiteSpace=wrap;html=1;fillColor=#dae8fc;strokeColor=#6c8ebf;" parent="2jUatfFAhC-dmfJNtU32-1" vertex="1">
                    <mxGeometry x="240" y="380" width="20" height="30" as="geometry"/>
                </mxCell>
                <mxCell id="2jUatfFAhC-dmfJNtU32-17" value="" style="rounded=0;whiteSpace=wrap;html=1;fillColor=#dae8fc;strokeColor=#6c8ebf;" parent="2jUatfFAhC-dmfJNtU32-1" vertex="1">
                    <mxGeometry x="300" y="380" width="20" height="30" as="geometry"/>
                </mxCell>
                <mxCell id="2jUatfFAhC-dmfJNtU32-165" value="" style="rounded=0;whiteSpace=wrap;html=1;fillColor=#d5e8d4;strokeColor=#82b366;" parent="2jUatfFAhC-dmfJNtU32-1" vertex="1">
                    <mxGeometry x="140" y="200" width="20" height="30" as="geometry"/>
                </mxCell>
                <mxCell id="2jUatfFAhC-dmfJNtU32-166" value="" style="rounded=0;whiteSpace=wrap;html=1;fillColor=#d5e8d4;strokeColor=#82b366;" parent="2jUatfFAhC-dmfJNtU32-1" vertex="1">
                    <mxGeometry x="200" y="200" width="20" height="30" as="geometry"/>
                </mxCell>
                <mxCell id="2jUatfFAhC-dmfJNtU32-167" value="" style="rounded=0;whiteSpace=wrap;html=1;fillColor=#d5e8d4;strokeColor=#82b366;" parent="2jUatfFAhC-dmfJNtU32-1" vertex="1">
                    <mxGeometry x="260" y="200" width="20" height="30" as="geometry"/>
                </mxCell>
                <mxCell id="2jUatfFAhC-dmfJNtU32-168" value="" style="rounded=0;whiteSpace=wrap;html=1;fillColor=#d5e8d4;strokeColor=#82b366;" parent="2jUatfFAhC-dmfJNtU32-1" vertex="1">
                    <mxGeometry x="320" y="200" width="20" height="30" as="geometry"/>
                </mxCell>
                <mxCell id="2jUatfFAhC-dmfJNtU32-169" value="" style="rounded=0;whiteSpace=wrap;html=1;fillColor=#d5e8d4;strokeColor=#82b366;" parent="2jUatfFAhC-dmfJNtU32-1" vertex="1">
                    <mxGeometry x="140" y="260" width="20" height="30" as="geometry"/>
                </mxCell>
                <mxCell id="2jUatfFAhC-dmfJNtU32-170" value="" style="rounded=0;whiteSpace=wrap;html=1;fillColor=#d5e8d4;strokeColor=#82b366;" parent="2jUatfFAhC-dmfJNtU32-1" vertex="1">
                    <mxGeometry x="200" y="260" width="20" height="30" as="geometry"/>
                </mxCell>
                <mxCell id="2jUatfFAhC-dmfJNtU32-171" value="" style="rounded=0;whiteSpace=wrap;html=1;fillColor=#d5e8d4;strokeColor=#82b366;" parent="2jUatfFAhC-dmfJNtU32-1" vertex="1">
                    <mxGeometry x="260" y="260" width="20" height="30" as="geometry"/>
                </mxCell>
                <mxCell id="2jUatfFAhC-dmfJNtU32-172" value="" style="rounded=0;whiteSpace=wrap;html=1;fillColor=#d5e8d4;strokeColor=#82b366;" parent="2jUatfFAhC-dmfJNtU32-1" vertex="1">
                    <mxGeometry x="320" y="260" width="20" height="30" as="geometry"/>
                </mxCell>
                <mxCell id="2jUatfFAhC-dmfJNtU32-173" value="" style="rounded=0;whiteSpace=wrap;html=1;fillColor=#d5e8d4;strokeColor=#82b366;" parent="2jUatfFAhC-dmfJNtU32-1" vertex="1">
                    <mxGeometry x="140" y="320" width="20" height="30" as="geometry"/>
                </mxCell>
                <mxCell id="2jUatfFAhC-dmfJNtU32-174" value="" style="rounded=0;whiteSpace=wrap;html=1;fillColor=#d5e8d4;strokeColor=#82b366;" parent="2jUatfFAhC-dmfJNtU32-1" vertex="1">
                    <mxGeometry x="200" y="320" width="20" height="30" as="geometry"/>
                </mxCell>
                <mxCell id="2jUatfFAhC-dmfJNtU32-175" value="" style="rounded=0;whiteSpace=wrap;html=1;fillColor=#d5e8d4;strokeColor=#82b366;" parent="2jUatfFAhC-dmfJNtU32-1" vertex="1">
                    <mxGeometry x="260" y="320" width="20" height="30" as="geometry"/>
                </mxCell>
                <mxCell id="2jUatfFAhC-dmfJNtU32-176" value="" style="rounded=0;whiteSpace=wrap;html=1;fillColor=#d5e8d4;strokeColor=#82b366;" parent="2jUatfFAhC-dmfJNtU32-1" vertex="1">
                    <mxGeometry x="320" y="320" width="20" height="30" as="geometry"/>
                </mxCell>
                <mxCell id="2jUatfFAhC-dmfJNtU32-177" value="" style="rounded=0;whiteSpace=wrap;html=1;fillColor=#d5e8d4;strokeColor=#82b366;" parent="2jUatfFAhC-dmfJNtU32-1" vertex="1">
                    <mxGeometry x="140" y="380" width="20" height="30" as="geometry"/>
                </mxCell>
                <mxCell id="2jUatfFAhC-dmfJNtU32-178" value="" style="rounded=0;whiteSpace=wrap;html=1;fillColor=#d5e8d4;strokeColor=#82b366;" parent="2jUatfFAhC-dmfJNtU32-1" vertex="1">
                    <mxGeometry x="200" y="380" width="20" height="30" as="geometry"/>
                </mxCell>
                <mxCell id="2jUatfFAhC-dmfJNtU32-179" value="" style="rounded=0;whiteSpace=wrap;html=1;fillColor=#d5e8d4;strokeColor=#82b366;" parent="2jUatfFAhC-dmfJNtU32-1" vertex="1">
                    <mxGeometry x="260" y="380" width="20" height="30" as="geometry"/>
                </mxCell>
                <mxCell id="2jUatfFAhC-dmfJNtU32-180" value="" style="rounded=0;whiteSpace=wrap;html=1;fillColor=#d5e8d4;strokeColor=#82b366;" parent="2jUatfFAhC-dmfJNtU32-1" vertex="1">
                    <mxGeometry x="320" y="380" width="20" height="30" as="geometry"/>
                </mxCell>
                <mxCell id="2jUatfFAhC-dmfJNtU32-181" value="" style="rounded=0;whiteSpace=wrap;html=1;fillColor=#ffe6cc;strokeColor=#d79b00;" parent="2jUatfFAhC-dmfJNtU32-1" vertex="1">
                    <mxGeometry x="160" y="200" width="20" height="30" as="geometry"/>
                </mxCell>
                <mxCell id="2jUatfFAhC-dmfJNtU32-182" value="" style="rounded=0;whiteSpace=wrap;html=1;fillColor=#ffe6cc;strokeColor=#d79b00;" parent="2jUatfFAhC-dmfJNtU32-1" vertex="1">
                    <mxGeometry x="220" y="200" width="20" height="30" as="geometry"/>
                </mxCell>
                <mxCell id="2jUatfFAhC-dmfJNtU32-183" value="" style="rounded=0;whiteSpace=wrap;html=1;fillColor=#ffe6cc;strokeColor=#d79b00;" parent="2jUatfFAhC-dmfJNtU32-1" vertex="1">
                    <mxGeometry x="280" y="200" width="20" height="30" as="geometry"/>
                </mxCell>
                <mxCell id="2jUatfFAhC-dmfJNtU32-184" value="" style="rounded=0;whiteSpace=wrap;html=1;fillColor=#ffe6cc;strokeColor=#d79b00;" parent="2jUatfFAhC-dmfJNtU32-1" vertex="1">
                    <mxGeometry x="340" y="200" width="20" height="30" as="geometry"/>
                </mxCell>
                <mxCell id="2jUatfFAhC-dmfJNtU32-185" value="" style="rounded=0;whiteSpace=wrap;html=1;fillColor=#ffe6cc;strokeColor=#d79b00;" parent="2jUatfFAhC-dmfJNtU32-1" vertex="1">
                    <mxGeometry x="160" y="260" width="20" height="30" as="geometry"/>
                </mxCell>
                <mxCell id="2jUatfFAhC-dmfJNtU32-186" value="" style="rounded=0;whiteSpace=wrap;html=1;fillColor=#ffe6cc;strokeColor=#d79b00;" parent="2jUatfFAhC-dmfJNtU32-1" vertex="1">
                    <mxGeometry x="220" y="260" width="20" height="30" as="geometry"/>
                </mxCell>
                <mxCell id="2jUatfFAhC-dmfJNtU32-187" value="" style="rounded=0;whiteSpace=wrap;html=1;fillColor=#ffe6cc;strokeColor=#d79b00;" parent="2jUatfFAhC-dmfJNtU32-1" vertex="1">
                    <mxGeometry x="280" y="260" width="20" height="30" as="geometry"/>
                </mxCell>
                <mxCell id="2jUatfFAhC-dmfJNtU32-188" value="" style="rounded=0;whiteSpace=wrap;html=1;fillColor=#ffe6cc;strokeColor=#d79b00;" parent="2jUatfFAhC-dmfJNtU32-1" vertex="1">
                    <mxGeometry x="340" y="260" width="20" height="30" as="geometry"/>
                </mxCell>
                <mxCell id="2jUatfFAhC-dmfJNtU32-189" value="" style="rounded=0;whiteSpace=wrap;html=1;fillColor=#ffe6cc;strokeColor=#d79b00;" parent="2jUatfFAhC-dmfJNtU32-1" vertex="1">
                    <mxGeometry x="160" y="320" width="20" height="30" as="geometry"/>
                </mxCell>
                <mxCell id="2jUatfFAhC-dmfJNtU32-190" value="" style="rounded=0;whiteSpace=wrap;html=1;fillColor=#ffe6cc;strokeColor=#d79b00;" parent="2jUatfFAhC-dmfJNtU32-1" vertex="1">
                    <mxGeometry x="220" y="320" width="20" height="30" as="geometry"/>
                </mxCell>
                <mxCell id="2jUatfFAhC-dmfJNtU32-191" value="" style="rounded=0;whiteSpace=wrap;html=1;fillColor=#ffe6cc;strokeColor=#d79b00;" parent="2jUatfFAhC-dmfJNtU32-1" vertex="1">
                    <mxGeometry x="280" y="320" width="20" height="30" as="geometry"/>
                </mxCell>
                <mxCell id="2jUatfFAhC-dmfJNtU32-192" value="" style="rounded=0;whiteSpace=wrap;html=1;fillColor=#ffe6cc;strokeColor=#d79b00;" parent="2jUatfFAhC-dmfJNtU32-1" vertex="1">
                    <mxGeometry x="340" y="320" width="20" height="30" as="geometry"/>
                </mxCell>
                <mxCell id="2jUatfFAhC-dmfJNtU32-193" value="" style="rounded=0;whiteSpace=wrap;html=1;fillColor=#ffe6cc;strokeColor=#d79b00;" parent="2jUatfFAhC-dmfJNtU32-1" vertex="1">
                    <mxGeometry x="160" y="380" width="20" height="30" as="geometry"/>
                </mxCell>
                <mxCell id="2jUatfFAhC-dmfJNtU32-194" value="" style="rounded=0;whiteSpace=wrap;html=1;fillColor=#ffe6cc;strokeColor=#d79b00;" parent="2jUatfFAhC-dmfJNtU32-1" vertex="1">
                    <mxGeometry x="220" y="380" width="20" height="30" as="geometry"/>
                </mxCell>
                <mxCell id="2jUatfFAhC-dmfJNtU32-195" value="" style="rounded=0;whiteSpace=wrap;html=1;fillColor=#ffe6cc;strokeColor=#d79b00;" parent="2jUatfFAhC-dmfJNtU32-1" vertex="1">
                    <mxGeometry x="280" y="380" width="20" height="30" as="geometry"/>
                </mxCell>
                <mxCell id="2jUatfFAhC-dmfJNtU32-196" value="" style="rounded=0;whiteSpace=wrap;html=1;fillColor=#ffe6cc;strokeColor=#d79b00;" parent="2jUatfFAhC-dmfJNtU32-1" vertex="1">
                    <mxGeometry x="340" y="380" width="20" height="30" as="geometry"/>
                </mxCell>
                <mxCell id="2jUatfFAhC-dmfJNtU32-197" value="" style="rounded=0;whiteSpace=wrap;html=1;fillColor=#fff2cc;strokeColor=#d6b656;" parent="2jUatfFAhC-dmfJNtU32-1" vertex="1">
                    <mxGeometry x="120" y="230" width="20" height="30" as="geometry"/>
                </mxCell>
                <mxCell id="2jUatfFAhC-dmfJNtU32-198" value="" style="rounded=0;whiteSpace=wrap;html=1;fillColor=#fff2cc;strokeColor=#d6b656;" parent="2jUatfFAhC-dmfJNtU32-1" vertex="1">
                    <mxGeometry x="180" y="230" width="20" height="30" as="geometry"/>
                </mxCell>
                <mxCell id="2jUatfFAhC-dmfJNtU32-199" value="" style="rounded=0;whiteSpace=wrap;html=1;fillColor=#fff2cc;strokeColor=#d6b656;" parent="2jUatfFAhC-dmfJNtU32-1" vertex="1">
                    <mxGeometry x="240" y="230" width="20" height="30" as="geometry"/>
                </mxCell>
                <mxCell id="2jUatfFAhC-dmfJNtU32-200" value="" style="rounded=0;whiteSpace=wrap;html=1;fillColor=#fff2cc;strokeColor=#d6b656;" parent="2jUatfFAhC-dmfJNtU32-1" vertex="1">
                    <mxGeometry x="300" y="230" width="20" height="30" as="geometry"/>
                </mxCell>
                <mxCell id="2jUatfFAhC-dmfJNtU32-201" value="" style="rounded=0;whiteSpace=wrap;html=1;fillColor=#fff2cc;strokeColor=#d6b656;" parent="2jUatfFAhC-dmfJNtU32-1" vertex="1">
                    <mxGeometry x="120" y="290" width="20" height="30" as="geometry"/>
                </mxCell>
                <mxCell id="2jUatfFAhC-dmfJNtU32-202" value="" style="rounded=0;whiteSpace=wrap;html=1;fillColor=#fff2cc;strokeColor=#d6b656;" parent="2jUatfFAhC-dmfJNtU32-1" vertex="1">
                    <mxGeometry x="180" y="290" width="20" height="30" as="geometry"/>
                </mxCell>
                <mxCell id="2jUatfFAhC-dmfJNtU32-203" value="" style="rounded=0;whiteSpace=wrap;html=1;fillColor=#fff2cc;strokeColor=#d6b656;" parent="2jUatfFAhC-dmfJNtU32-1" vertex="1">
                    <mxGeometry x="240" y="290" width="20" height="30" as="geometry"/>
                </mxCell>
                <mxCell id="2jUatfFAhC-dmfJNtU32-204" value="" style="rounded=0;whiteSpace=wrap;html=1;fillColor=#fff2cc;strokeColor=#d6b656;" parent="2jUatfFAhC-dmfJNtU32-1" vertex="1">
                    <mxGeometry x="300" y="290" width="20" height="30" as="geometry"/>
                </mxCell>
                <mxCell id="2jUatfFAhC-dmfJNtU32-205" value="" style="rounded=0;whiteSpace=wrap;html=1;fillColor=#fff2cc;strokeColor=#d6b656;" parent="2jUatfFAhC-dmfJNtU32-1" vertex="1">
                    <mxGeometry x="120" y="350" width="20" height="30" as="geometry"/>
                </mxCell>
                <mxCell id="2jUatfFAhC-dmfJNtU32-206" value="" style="rounded=0;whiteSpace=wrap;html=1;fillColor=#fff2cc;strokeColor=#d6b656;" parent="2jUatfFAhC-dmfJNtU32-1" vertex="1">
                    <mxGeometry x="180" y="350" width="20" height="30" as="geometry"/>
                </mxCell>
                <mxCell id="2jUatfFAhC-dmfJNtU32-207" value="" style="rounded=0;whiteSpace=wrap;html=1;fillColor=#fff2cc;strokeColor=#d6b656;" parent="2jUatfFAhC-dmfJNtU32-1" vertex="1">
                    <mxGeometry x="240" y="350" width="20" height="30" as="geometry"/>
                </mxCell>
                <mxCell id="2jUatfFAhC-dmfJNtU32-208" value="" style="rounded=0;whiteSpace=wrap;html=1;fillColor=#fff2cc;strokeColor=#d6b656;" parent="2jUatfFAhC-dmfJNtU32-1" vertex="1">
                    <mxGeometry x="300" y="350" width="20" height="30" as="geometry"/>
                </mxCell>
                <mxCell id="2jUatfFAhC-dmfJNtU32-209" value="" style="rounded=0;whiteSpace=wrap;html=1;fillColor=#fff2cc;strokeColor=#d6b656;" parent="2jUatfFAhC-dmfJNtU32-1" vertex="1">
                    <mxGeometry x="120" y="410" width="20" height="30" as="geometry"/>
                </mxCell>
                <mxCell id="2jUatfFAhC-dmfJNtU32-210" value="" style="rounded=0;whiteSpace=wrap;html=1;fillColor=#fff2cc;strokeColor=#d6b656;" parent="2jUatfFAhC-dmfJNtU32-1" vertex="1">
                    <mxGeometry x="180" y="410" width="20" height="30" as="geometry"/>
                </mxCell>
                <mxCell id="2jUatfFAhC-dmfJNtU32-211" value="" style="rounded=0;whiteSpace=wrap;html=1;fillColor=#fff2cc;strokeColor=#d6b656;" parent="2jUatfFAhC-dmfJNtU32-1" vertex="1">
                    <mxGeometry x="240" y="410" width="20" height="30" as="geometry"/>
                </mxCell>
                <mxCell id="2jUatfFAhC-dmfJNtU32-212" value="" style="rounded=0;whiteSpace=wrap;html=1;fillColor=#fff2cc;strokeColor=#d6b656;" parent="2jUatfFAhC-dmfJNtU32-1" vertex="1">
                    <mxGeometry x="300" y="410" width="20" height="30" as="geometry"/>
                </mxCell>
                <mxCell id="2jUatfFAhC-dmfJNtU32-213" value="" style="rounded=0;whiteSpace=wrap;html=1;fillColor=#f8cecc;strokeColor=#b85450;" parent="2jUatfFAhC-dmfJNtU32-1" vertex="1">
                    <mxGeometry x="140" y="230" width="20" height="30" as="geometry"/>
                </mxCell>
                <mxCell id="2jUatfFAhC-dmfJNtU32-214" value="" style="rounded=0;whiteSpace=wrap;html=1;fillColor=#f8cecc;strokeColor=#b85450;" parent="2jUatfFAhC-dmfJNtU32-1" vertex="1">
                    <mxGeometry x="200" y="230" width="20" height="30" as="geometry"/>
                </mxCell>
                <mxCell id="2jUatfFAhC-dmfJNtU32-215" value="" style="rounded=0;whiteSpace=wrap;html=1;fillColor=#f8cecc;strokeColor=#b85450;" parent="2jUatfFAhC-dmfJNtU32-1" vertex="1">
                    <mxGeometry x="260" y="230" width="20" height="30" as="geometry"/>
                </mxCell>
                <mxCell id="2jUatfFAhC-dmfJNtU32-216" value="" style="rounded=0;whiteSpace=wrap;html=1;fillColor=#f8cecc;strokeColor=#b85450;" parent="2jUatfFAhC-dmfJNtU32-1" vertex="1">
                    <mxGeometry x="320" y="230" width="20" height="30" as="geometry"/>
                </mxCell>
                <mxCell id="2jUatfFAhC-dmfJNtU32-217" value="" style="rounded=0;whiteSpace=wrap;html=1;fillColor=#f8cecc;strokeColor=#b85450;" parent="2jUatfFAhC-dmfJNtU32-1" vertex="1">
                    <mxGeometry x="140" y="290" width="20" height="30" as="geometry"/>
                </mxCell>
                <mxCell id="2jUatfFAhC-dmfJNtU32-218" value="" style="rounded=0;whiteSpace=wrap;html=1;fillColor=#f8cecc;strokeColor=#b85450;" parent="2jUatfFAhC-dmfJNtU32-1" vertex="1">
                    <mxGeometry x="200" y="290" width="20" height="30" as="geometry"/>
                </mxCell>
                <mxCell id="2jUatfFAhC-dmfJNtU32-219" value="" style="rounded=0;whiteSpace=wrap;html=1;fillColor=#f8cecc;strokeColor=#b85450;" parent="2jUatfFAhC-dmfJNtU32-1" vertex="1">
                    <mxGeometry x="260" y="290" width="20" height="30" as="geometry"/>
                </mxCell>
                <mxCell id="2jUatfFAhC-dmfJNtU32-220" value="" style="rounded=0;whiteSpace=wrap;html=1;fillColor=#f8cecc;strokeColor=#b85450;" parent="2jUatfFAhC-dmfJNtU32-1" vertex="1">
                    <mxGeometry x="320" y="290" width="20" height="30" as="geometry"/>
                </mxCell>
                <mxCell id="2jUatfFAhC-dmfJNtU32-221" value="" style="rounded=0;whiteSpace=wrap;html=1;fillColor=#f8cecc;strokeColor=#b85450;" parent="2jUatfFAhC-dmfJNtU32-1" vertex="1">
                    <mxGeometry x="140" y="350" width="20" height="30" as="geometry"/>
                </mxCell>
                <mxCell id="2jUatfFAhC-dmfJNtU32-222" value="" style="rounded=0;whiteSpace=wrap;html=1;fillColor=#f8cecc;strokeColor=#b85450;" parent="2jUatfFAhC-dmfJNtU32-1" vertex="1">
                    <mxGeometry x="200" y="350" width="20" height="30" as="geometry"/>
                </mxCell>
                <mxCell id="2jUatfFAhC-dmfJNtU32-223" value="" style="rounded=0;whiteSpace=wrap;html=1;fillColor=#f8cecc;strokeColor=#b85450;" parent="2jUatfFAhC-dmfJNtU32-1" vertex="1">
                    <mxGeometry x="260" y="350" width="20" height="30" as="geometry"/>
                </mxCell>
                <mxCell id="2jUatfFAhC-dmfJNtU32-224" value="" style="rounded=0;whiteSpace=wrap;html=1;fillColor=#f8cecc;strokeColor=#b85450;" parent="2jUatfFAhC-dmfJNtU32-1" vertex="1">
                    <mxGeometry x="320" y="350" width="20" height="30" as="geometry"/>
                </mxCell>
                <mxCell id="2jUatfFAhC-dmfJNtU32-225" value="" style="rounded=0;whiteSpace=wrap;html=1;fillColor=#f8cecc;strokeColor=#b85450;" parent="2jUatfFAhC-dmfJNtU32-1" vertex="1">
                    <mxGeometry x="140" y="410" width="20" height="30" as="geometry"/>
                </mxCell>
                <mxCell id="2jUatfFAhC-dmfJNtU32-226" value="" style="rounded=0;whiteSpace=wrap;html=1;fillColor=#f8cecc;strokeColor=#b85450;" parent="2jUatfFAhC-dmfJNtU32-1" vertex="1">
                    <mxGeometry x="200" y="410" width="20" height="30" as="geometry"/>
                </mxCell>
                <mxCell id="2jUatfFAhC-dmfJNtU32-227" value="" style="rounded=0;whiteSpace=wrap;html=1;fillColor=#f8cecc;strokeColor=#b85450;" parent="2jUatfFAhC-dmfJNtU32-1" vertex="1">
                    <mxGeometry x="260" y="410" width="20" height="30" as="geometry"/>
                </mxCell>
                <mxCell id="2jUatfFAhC-dmfJNtU32-228" value="" style="rounded=0;whiteSpace=wrap;html=1;fillColor=#f8cecc;strokeColor=#b85450;" parent="2jUatfFAhC-dmfJNtU32-1" vertex="1">
                    <mxGeometry x="320" y="410" width="20" height="30" as="geometry"/>
                </mxCell>
                <mxCell id="2jUatfFAhC-dmfJNtU32-229" value="" style="rounded=0;whiteSpace=wrap;html=1;fillColor=#e1d5e7;strokeColor=#9673a6;" parent="2jUatfFAhC-dmfJNtU32-1" vertex="1">
                    <mxGeometry x="160" y="230" width="20" height="30" as="geometry"/>
                </mxCell>
                <mxCell id="2jUatfFAhC-dmfJNtU32-230" value="" style="rounded=0;whiteSpace=wrap;html=1;fillColor=#e1d5e7;strokeColor=#9673a6;" parent="2jUatfFAhC-dmfJNtU32-1" vertex="1">
                    <mxGeometry x="220" y="230" width="20" height="30" as="geometry"/>
                </mxCell>
                <mxCell id="2jUatfFAhC-dmfJNtU32-231" value="" style="rounded=0;whiteSpace=wrap;html=1;fillColor=#e1d5e7;strokeColor=#9673a6;" parent="2jUatfFAhC-dmfJNtU32-1" vertex="1">
                    <mxGeometry x="280" y="230" width="20" height="30" as="geometry"/>
                </mxCell>
                <mxCell id="2jUatfFAhC-dmfJNtU32-232" value="" style="rounded=0;whiteSpace=wrap;html=1;fillColor=#e1d5e7;strokeColor=#9673a6;" parent="2jUatfFAhC-dmfJNtU32-1" vertex="1">
                    <mxGeometry x="340" y="230" width="20" height="30" as="geometry"/>
                </mxCell>
                <mxCell id="2jUatfFAhC-dmfJNtU32-233" value="" style="rounded=0;whiteSpace=wrap;html=1;fillColor=#e1d5e7;strokeColor=#9673a6;" parent="2jUatfFAhC-dmfJNtU32-1" vertex="1">
                    <mxGeometry x="160" y="290" width="20" height="30" as="geometry"/>
                </mxCell>
                <mxCell id="2jUatfFAhC-dmfJNtU32-234" value="" style="rounded=0;whiteSpace=wrap;html=1;fillColor=#e1d5e7;strokeColor=#9673a6;" parent="2jUatfFAhC-dmfJNtU32-1" vertex="1">
                    <mxGeometry x="220" y="290" width="20" height="30" as="geometry"/>
                </mxCell>
                <mxCell id="2jUatfFAhC-dmfJNtU32-235" value="" style="rounded=0;whiteSpace=wrap;html=1;fillColor=#e1d5e7;strokeColor=#9673a6;" parent="2jUatfFAhC-dmfJNtU32-1" vertex="1">
                    <mxGeometry x="280" y="290" width="20" height="30" as="geometry"/>
                </mxCell>
                <mxCell id="2jUatfFAhC-dmfJNtU32-236" value="" style="rounded=0;whiteSpace=wrap;html=1;fillColor=#e1d5e7;strokeColor=#9673a6;" parent="2jUatfFAhC-dmfJNtU32-1" vertex="1">
                    <mxGeometry x="340" y="290" width="20" height="30" as="geometry"/>
                </mxCell>
                <mxCell id="2jUatfFAhC-dmfJNtU32-237" value="" style="rounded=0;whiteSpace=wrap;html=1;fillColor=#e1d5e7;strokeColor=#9673a6;" parent="2jUatfFAhC-dmfJNtU32-1" vertex="1">
                    <mxGeometry x="160" y="350" width="20" height="30" as="geometry"/>
                </mxCell>
                <mxCell id="2jUatfFAhC-dmfJNtU32-238" value="" style="rounded=0;whiteSpace=wrap;html=1;fillColor=#e1d5e7;strokeColor=#9673a6;" parent="2jUatfFAhC-dmfJNtU32-1" vertex="1">
                    <mxGeometry x="220" y="350" width="20" height="30" as="geometry"/>
                </mxCell>
                <mxCell id="2jUatfFAhC-dmfJNtU32-239" value="" style="rounded=0;whiteSpace=wrap;html=1;fillColor=#e1d5e7;strokeColor=#9673a6;" parent="2jUatfFAhC-dmfJNtU32-1" vertex="1">
                    <mxGeometry x="280" y="350" width="20" height="30" as="geometry"/>
                </mxCell>
                <mxCell id="2jUatfFAhC-dmfJNtU32-240" value="" style="rounded=0;whiteSpace=wrap;html=1;fillColor=#e1d5e7;strokeColor=#9673a6;" parent="2jUatfFAhC-dmfJNtU32-1" vertex="1">
                    <mxGeometry x="340" y="350" width="20" height="30" as="geometry"/>
                </mxCell>
                <mxCell id="2jUatfFAhC-dmfJNtU32-241" value="" style="rounded=0;whiteSpace=wrap;html=1;fillColor=#e1d5e7;strokeColor=#9673a6;" parent="2jUatfFAhC-dmfJNtU32-1" vertex="1">
                    <mxGeometry x="160" y="410" width="20" height="30" as="geometry"/>
                </mxCell>
                <mxCell id="2jUatfFAhC-dmfJNtU32-242" value="" style="rounded=0;whiteSpace=wrap;html=1;fillColor=#e1d5e7;strokeColor=#9673a6;" parent="2jUatfFAhC-dmfJNtU32-1" vertex="1">
                    <mxGeometry x="220" y="410" width="20" height="30" as="geometry"/>
                </mxCell>
                <mxCell id="2jUatfFAhC-dmfJNtU32-243" value="" style="rounded=0;whiteSpace=wrap;html=1;fillColor=#e1d5e7;strokeColor=#9673a6;" parent="2jUatfFAhC-dmfJNtU32-1" vertex="1">
                    <mxGeometry x="280" y="410" width="20" height="30" as="geometry"/>
                </mxCell>
                <mxCell id="2jUatfFAhC-dmfJNtU32-244" value="" style="rounded=0;whiteSpace=wrap;html=1;fillColor=#e1d5e7;strokeColor=#9673a6;" parent="2jUatfFAhC-dmfJNtU32-1" vertex="1">
                    <mxGeometry x="340" y="410" width="20" height="30" as="geometry"/>
                </mxCell>
                <mxCell id="2jUatfFAhC-dmfJNtU32-245" value="$$192 \times 192$$" style="text;html=1;align=center;verticalAlign=middle;resizable=0;points=[];autosize=1;strokeColor=none;fillColor=none;" parent="2jUatfFAhC-dmfJNtU32-1" vertex="1">
                    <mxGeometry x="360" y="200" width="120" height="20" as="geometry"/>
                </mxCell>
            </root>
        </mxGraphModel>
    </diagram>
</mxfile>